<svg xmlns="http://www.w3.org/2000/svg" viewBox="0 0 158.55 148.76"><defs><style>.cls-1{fill:#ef7a3f;stroke:#fff;stroke-miterlimit:10;}</style></defs><g id="Layer_2" data-name="Layer 2"><g id="Capa_1" data-name="Capa 1"><path class="cls-1" d="M49.33,23.42l39,10.43.15.88a97,97,0,0,0-9.65,3.94,7.57,7.57,0,0,0-3.59,4c-5,18.07-9.77,36.21-14.72,54.3a5.2,5.2,0,0,0,1.17,5.33A45.37,45.37,0,0,1,67.77,111c-1.25-.29-2.5-.55-3.73-.88-15.13-4-30.16-8.47-45.39-12C7.74,95.57,2.74,88.41,1.24,78.34c-2.56-17.16,1.58-33,11.56-47.07a41.88,41.88,0,0,1,9.72-9.14,18.32,18.32,0,0,1,8-2.79c6.07-.82,7.5.65,7.5,6.7,0,8.29.11,16.59-.09,24.87a7.84,7.84,0,0,1-2,4.71c-4.54,4.85-4.69,11.59-.08,16.08a10.94,10.94,0,0,0,15.77-.41C55.77,67,55.38,60,50.92,55.45A6.18,6.18,0,0,1,49,51.76c-.17-8.63-.09-17.27-.07-25.9A18.24,18.24,0,0,1,49.33,23.42Z"/><path class="cls-1" d="M111.3,28c-9,33.51-17.68,66-26.59,99.24-1.14-1.21-1.91-1.93-2.56-2.75-6.1-7.65-12.26-15.25-18.18-23a6.58,6.58,0,0,1-1-4.93c4.54-17.48,9.26-34.91,14-52.33.33-1.22,1-2.9,2-3.3C89.38,36.63,99.87,32.55,111.3,28Z"/><path class="cls-1" d="M127.8,139.2c-6.16-7.76-11.72-14.75-17.17-21.6,18.92-19.14,25.05-41.36,18.06-67.81l25.8-10.2C145.54,73,136.82,105.56,127.8,139.2Z"/><path class="cls-1" d="M65,.57C73.23.43,75.09,2.42,75.08,10.7q0,8-.08,15.9a2.94,2.94,0,0,1-.32.93c-5.86-.13-6.29-.54-6.3-5.9,0-3.8-.08-7.6,0-11.4C68.47,8.13,68,7,65.57,7.07c-5.18.12-10.37.07-15.55,0-2.29,0-3.25.79-3.24,3.23.09,14.18,0,28.35.14,42.52a6,6,0,0,0,2,3.91c4.16,3.57,4.68,9.5.94,13.43C46.6,73.6,40.5,73.53,37.11,70a8.66,8.66,0,0,1,.83-13.1c2-1.49,2.39-3.06,2.38-5.26q-.07-21.07,0-42.17c0-6.74,2.2-9,8.82-9"/><path class="cls-1" d="M157.32,29.24,127.19,48.15c-3.71-6-9.18-9.29-16.21-10.31l3.29-13.19-22.16,8.6c2.27-6.81,4.13-12.68,6.28-18.44.2-.52,2.4-.69,3.51-.4,13.36,3.49,26.69,7.1,40,10.68Z"/><path class="cls-1" d="M124.32,148.19l-14.24-3.8C97,140.88,83.89,137.25,70.73,134c-3.42-.86-4.17-2.18-3.26-5.46,1.25-4.5,2-9.13,3.25-14.92l14.82,18.58c1-3.74,2-6.71,2.62-9.76.55-2.64,1.68-3.37,4.3-2.48,5.66,1.92,11.11.88,16.66-2.14l15.73,29.61Z"/><path class="cls-1" d="M89.8,116.72l1.4-5.13c9.82,3.13,14.81,1.8,21-6.52C122.3,91.39,126.32,76,123.46,59.13c-1.54-9-5.4-12.41-14.53-13.88l1.46-5c9.64.9,16.11,7.16,18,17.09,3.23,17-.41,32.72-9.49,47.17a44.36,44.36,0,0,1-9.55,10.28C103.61,119.45,97,119.93,89.8,116.72Z"/></g></g></svg>